
<svg width="100" height="100" viewBox="0 0 100 100" fill="none" xmlns="http://www.w3.org/2000/svg">
<path d="M50 0C22.3858 0 0 22.3858 0 50C0 77.6142 22.3858 100 50 100C77.6142 100 100 77.6142 100 50C100 22.3858 77.6142 0 50 0ZM50 88.2353C28.8824 88.2353 11.7647 71.1176 11.7647 50C11.7647 28.8824 28.8824 11.7647 50 11.7647C71.1176 11.7647 88.2353 28.8824 88.2353 50C88.2353 71.1176 71.1176 88.2353 50 88.2353Z" fill="#FFD700"/>
<path d="M35 35H65V40H35V35Z" fill="#FFFFFF"/>
<path d="M35 50H75V55H35V50Z" fill="#FFFFFF"/>
<path d="M35 65H55V70H35V65Z" fill="#FFFFFF"/>
</svg>
